<svg xmlns="http://www.w3.org/2000/svg" width="512" height="512" viewBox="0 0 512 512">
  <defs>
    <linearGradient id="bg" x1="0" y1="0" x2="1" y2="1">
      <stop offset="0" stop-color="#0D2B1A"/>
      <stop offset="1" stop-color="#1F4D30"/>
    </linearGradient>
  </defs>
  
  <!-- 배경: iOS/Android 둥근 사각형 -->
  <rect width="512" height="512" rx="115" ry="115" fill="url(#bg)"/>
  
  <!-- 별 (배경 장식) -->
  <circle cx="100" cy="110" r="2.5" fill="#FFFFFF" opacity="0.6"/>
  <circle cx="420" cy="100" r="2" fill="#FFFFFF" opacity="0.5"/>
  <circle cx="430" cy="400" r="2.5" fill="#FFFFFF" opacity="0.6"/>
  <circle cx="90" cy="410" r="2" fill="#FFFFFF" opacity="0.5"/>
  <circle cx="55" cy="220" r="1.5" fill="#FFFFFF" opacity="0.4"/>
  <circle cx="450" cy="260" r="1.5" fill="#FFFFFF" opacity="0.4"/>
  <circle cx="180" cy="60" r="1.2" fill="#FFFFFF" opacity="0.6"/>
  <circle cx="350" cy="450" r="1.2" fill="#FFFFFF" opacity="0.6"/>
  
  <!-- 그린 지구 (중심) -->
  <g transform="translate(256, 256)">
    <circle r="120" fill="#10D67A"/>
    <ellipse cx="-35" cy="-25" rx="40" ry="28" fill="#0D2B1A" opacity="0.4"/>
    <ellipse cx="40" cy="35" rx="28" ry="22" fill="#0D2B1A" opacity="0.4"/>
    <ellipse cx="-15" cy="50" rx="22" ry="14" fill="#0D2B1A" opacity="0.4"/>
    <ellipse cx="55" cy="-30" rx="15" ry="10" fill="#0D2B1A" opacity="0.4"/>
    <ellipse cx="-50" cy="20" rx="10" ry="8" fill="#0D2B1A" opacity="0.35"/>
  </g>
  
  <!-- 옐로 다중 궤도 (3개 회전) -->
  <g transform="translate(256, 256)">
    <ellipse cx="0" cy="0" rx="172" ry="58" fill="none" stroke="#F4D35E" stroke-width="7"/>
    <ellipse cx="0" cy="0" rx="172" ry="58" fill="none" stroke="#F4D35E" stroke-width="7" transform="rotate(60)"/>
    <ellipse cx="0" cy="0" rx="172" ry="58" fill="none" stroke="#F4D35E" stroke-width="7" transform="rotate(-60)"/>
  </g>
</svg>
